<svg width="186.133" height="60.743" viewBox="0 0 186.133 60.743" xmlns="http://www.w3.org/2000/svg"><g id="svgGroup" stroke-linecap="round" fill-rule="evenodd" font-size="9pt" stroke="#000000" stroke-width="0.25mm" fill="none" style="stroke:#000000;stroke-width:0.25mm;fill:none"><path d="M 25.366 23.193 L 25.366 23.926 Q 25.366 26.929 24.768 29.553 Q 24.17 32.178 22.827 34.119 Q 21.484 36.06 19.36 37.171 Q 17.236 38.281 14.185 38.281 Q 12.671 38.281 11.194 37.879 Q 9.717 37.476 8.435 36.768 Q 7.153 36.06 6.14 35.095 Q 5.127 34.131 4.541 33.008 Q 4.419 32.813 4.419 32.568 Q 4.419 32.227 4.675 31.946 Q 4.932 31.665 5.347 31.665 Q 5.884 31.665 6.152 32.129 Q 6.689 33.081 7.544 33.887 Q 8.398 34.692 9.46 35.266 Q 10.522 35.84 11.731 36.157 Q 12.939 36.475 14.185 36.475 Q 16.699 36.475 18.481 35.584 Q 20.264 34.692 21.387 33.045 Q 22.51 31.397 23.022 29.089 Q 23.535 26.782 23.535 23.926 L 23.535 22.974 Q 22.73 22.705 22.241 22.217 Q 21.753 21.729 21.753 21.021 Q 21.753 20.313 22.217 19.776 Q 22.681 19.238 23.535 18.897 Q 23.535 18.335 23.56 17.786 Q 23.584 17.236 23.633 16.699 Q 23.779 14.942 24.182 13.55 Q 24.585 12.158 25.134 11.109 Q 25.684 10.059 26.27 9.326 Q 26.855 8.594 27.368 8.118 Q 27.881 7.642 28.223 7.422 Q 28.564 7.202 28.613 7.178 Q 28.784 7.08 29.028 7.08 Q 29.395 7.08 29.675 7.337 Q 29.956 7.593 29.956 8.008 Q 29.956 8.545 29.492 8.814 Q 29.419 8.862 28.845 9.277 Q 28.272 9.692 27.588 10.62 Q 26.904 11.548 26.27 13.074 Q 25.635 14.6 25.464 16.846 Q 25.415 17.236 25.403 17.627 Q 25.391 18.018 25.366 18.408 Q 25.806 18.359 26.282 18.323 Q 26.758 18.286 27.295 18.286 Q 29.053 18.286 30.689 18.677 Q 32.324 19.067 33.691 19.8 Q 37.231 18.384 39.111 16.04 Q 40.991 13.696 40.991 10.816 Q 40.991 8.667 39.917 6.995 Q 38.843 5.322 36.902 4.175 Q 34.961 3.027 32.263 2.417 Q 29.565 1.807 26.343 1.807 Q 23.535 1.807 20.618 2.234 Q 17.7 2.661 14.978 3.516 Q 12.256 4.37 9.863 5.64 Q 7.471 6.909 5.689 8.557 Q 3.906 10.205 2.881 12.232 Q 1.855 14.258 1.855 16.626 Q 1.855 18.384 2.466 19.714 Q 3.076 21.045 4.089 21.936 Q 5.103 22.827 6.421 23.279 Q 7.739 23.731 9.18 23.731 Q 10.889 23.731 12.183 23.389 Q 13.477 23.047 14.355 22.644 Q 15.234 22.241 15.686 21.887 Q 16.138 21.533 16.187 21.484 Q 16.357 21.362 16.577 21.204 Q 16.797 21.045 17.041 21.045 Q 17.407 21.045 17.676 21.301 Q 17.944 21.558 17.944 21.948 Q 17.944 22.339 17.676 22.583 Q 17.627 22.632 17.053 23.108 Q 16.48 23.584 15.405 24.121 Q 14.331 24.658 12.781 25.098 Q 11.23 25.537 9.229 25.537 Q 7.373 25.537 5.701 24.927 Q 4.028 24.317 2.759 23.169 Q 1.489 22.022 0.745 20.374 Q 0 18.726 0 16.626 Q 0 14.307 0.952 12.171 Q 1.904 10.034 3.638 8.179 Q 5.371 6.323 7.788 4.822 Q 10.205 3.32 13.123 2.246 Q 16.04 1.172 19.385 0.586 Q 22.73 0 26.294 0 Q 29.932 0 32.971 0.72 Q 36.011 1.441 38.208 2.796 Q 40.405 4.151 41.626 6.116 Q 42.847 8.081 42.847 10.571 Q 42.847 13.867 40.955 16.553 Q 39.063 19.238 35.4 21.021 Q 36.743 22.168 37.512 23.694 Q 38.281 25.22 38.66 26.782 Q 39.038 28.345 39.148 29.761 Q 39.258 31.177 39.307 32.129 Q 39.355 33.521 39.563 34.387 Q 39.771 35.254 40.149 35.742 Q 40.527 36.231 41.077 36.414 Q 41.626 36.597 42.407 36.597 Q 43.506 36.597 44.434 36.072 Q 45.361 35.547 46.106 34.766 Q 46.851 33.984 47.424 33.069 Q 47.998 32.153 48.389 31.36 Q 48.779 30.567 48.987 30.042 Q 49.194 29.517 49.194 29.492 Q 49.439 28.882 50.049 28.882 Q 50.464 28.882 50.72 29.163 Q 50.977 29.443 50.977 29.81 Q 50.977 29.932 50.928 30.127 Q 50.903 30.225 50.647 30.872 Q 50.391 31.519 49.902 32.434 Q 49.414 33.35 48.682 34.4 Q 47.949 35.449 46.985 36.34 Q 46.021 37.232 44.812 37.817 Q 43.604 38.403 42.139 38.403 Q 40.845 38.403 39.978 37.988 Q 39.111 37.573 38.562 36.78 Q 38.013 35.986 37.756 34.851 Q 37.5 33.716 37.451 32.251 Q 37.427 31.641 37.378 30.798 Q 37.329 29.956 37.195 29.016 Q 37.061 28.076 36.816 27.075 Q 36.572 26.074 36.133 25.122 Q 35.693 24.17 35.034 23.316 Q 34.375 22.461 33.423 21.826 Q 31.543 22.461 29.529 22.815 Q 27.515 23.169 25.366 23.193 Z M 86.963 38.184 Q 88.77 37.378 90.247 36.328 Q 91.724 35.278 92.883 34.119 Q 94.043 32.959 94.861 31.751 Q 95.679 30.542 96.167 29.443 Q 96.387 28.906 96.997 28.906 Q 97.412 28.906 97.668 29.187 Q 97.925 29.468 97.925 29.81 Q 97.925 30.005 97.852 30.176 Q 97.314 31.372 96.484 32.654 Q 95.654 33.936 94.47 35.169 Q 93.286 36.401 91.699 37.549 Q 90.112 38.696 88.062 39.649 Q 89.38 41.016 90.356 42.688 Q 91.333 44.36 91.98 46.167 Q 92.627 47.974 92.957 49.817 Q 93.286 51.66 93.286 53.345 Q 93.286 54.883 93.005 56.238 Q 92.725 57.593 92.175 58.594 Q 91.626 59.595 90.845 60.169 Q 90.064 60.742 89.063 60.742 Q 87.598 60.742 86.792 59.656 Q 85.986 58.569 85.608 56.653 Q 85.23 54.736 85.168 52.136 Q 85.107 49.536 85.107 46.484 L 85.107 42.957 Q 85.107 40.942 85.12 38.635 Q 85.132 36.328 85.144 33.801 Q 85.156 31.275 85.181 28.735 Q 85.205 26.196 85.23 23.743 Q 85.254 21.289 85.303 19.092 Q 85.376 14.893 85.596 11.597 Q 85.815 8.301 86.304 6.03 Q 86.792 3.76 87.634 2.576 Q 88.477 1.392 89.771 1.392 Q 90.796 1.392 91.504 1.965 Q 92.212 2.539 92.651 3.504 Q 93.091 4.468 93.286 5.762 Q 93.481 7.056 93.481 8.472 Q 93.481 11.45 92.969 14.234 Q 92.456 17.017 91.577 19.629 Q 90.698 22.241 89.514 24.732 Q 88.33 27.222 86.987 29.639 L 86.987 31.799 L 86.987 34.119 Q 86.987 35.278 86.975 36.34 Q 86.963 37.402 86.963 38.184 Z M 107.422 34.302 Q 106.812 34.302 106.348 34.204 Q 105.981 34.937 105.469 35.559 Q 104.956 36.182 104.285 36.646 Q 103.613 37.109 102.783 37.378 Q 101.953 37.647 100.977 37.647 Q 99.829 37.647 98.877 37.244 Q 97.925 36.841 97.217 36.121 Q 96.509 35.401 96.118 34.387 Q 95.728 33.374 95.728 32.153 Q 95.728 30.591 96.289 29.431 Q 96.851 28.272 97.583 27.503 Q 98.315 26.734 99.048 26.355 Q 99.78 25.977 100.147 25.977 Q 100.562 25.977 100.769 26.196 Q 100.977 26.416 100.977 26.782 Q 100.977 27.197 100.72 27.405 Q 100.464 27.612 100.073 27.808 Q 99.683 28.003 99.243 28.357 Q 98.804 28.711 98.425 29.248 Q 98.047 29.785 97.803 30.518 Q 97.559 31.25 97.559 32.153 Q 97.559 32.959 97.803 33.655 Q 98.047 34.351 98.511 34.851 Q 98.975 35.352 99.609 35.632 Q 100.244 35.913 101.025 35.913 Q 102.417 35.913 103.333 35.266 Q 104.248 34.619 104.736 33.618 Q 103.296 32.861 102.368 31.47 Q 101.44 30.078 101.44 28.345 Q 101.44 26.953 102.112 26.074 Q 102.783 25.195 103.882 25.195 Q 104.541 25.195 105.127 25.513 Q 105.713 25.83 106.165 26.514 Q 106.616 27.197 106.885 28.272 Q 107.153 29.346 107.153 30.835 Q 107.153 31.616 106.958 32.471 Q 107.105 32.495 107.251 32.495 L 107.568 32.495 Q 108.398 32.495 109.058 32.3 Q 109.717 32.105 110.254 31.714 Q 110.791 31.323 111.218 30.713 Q 111.646 30.103 112.036 29.297 Q 112.109 29.151 112.354 29.016 Q 112.598 28.882 112.842 28.882 Q 113.159 28.882 113.44 29.138 Q 113.721 29.395 113.721 29.81 Q 113.721 30.005 113.623 30.237 Q 113.525 30.469 113.428 30.664 Q 113.013 31.397 112.463 32.068 Q 111.914 32.739 111.169 33.24 Q 110.425 33.74 109.497 34.033 Q 108.569 34.326 107.422 34.302 Z M 62.305 27.954 Q 62.158 28.345 61.951 28.833 Q 61.743 29.321 61.475 29.859 Q 61.255 30.274 61.023 30.505 Q 60.791 30.737 60.425 30.737 Q 60.01 30.737 59.766 30.481 Q 59.522 30.225 59.522 29.883 Q 59.522 29.761 59.546 29.675 Q 59.57 29.59 59.668 29.395 Q 60.303 28.174 60.608 27.258 Q 60.913 26.343 61.108 25.342 Q 60.938 24.78 60.864 24.39 Q 60.791 23.999 60.791 23.584 Q 60.791 22.778 61.133 22.278 Q 61.475 21.777 62.085 21.777 Q 62.647 21.777 62.976 22.266 Q 63.306 22.754 63.306 23.462 Q 63.306 23.853 63.232 24.243 Q 63.159 24.634 63.037 25.22 Q 63.599 26.611 64.16 27.686 Q 64.722 28.76 65.161 29.651 Q 65.601 30.542 65.881 31.323 Q 66.162 32.105 66.162 32.886 Q 66.162 33.911 65.747 34.839 Q 65.332 35.767 64.38 36.401 Q 64.502 36.426 64.624 36.426 L 64.868 36.426 Q 66.26 36.426 67.432 35.791 Q 68.604 35.156 69.543 34.143 Q 70.483 33.13 71.216 31.897 Q 71.948 30.664 72.485 29.443 Q 72.73 28.882 73.169 28.882 Q 73.584 28.882 73.816 29.175 Q 74.048 29.468 74.048 29.81 Q 74.048 30.005 73.975 30.176 Q 73.706 30.835 73.279 31.677 Q 72.852 32.52 72.253 33.411 Q 71.655 34.302 70.874 35.156 Q 70.093 36.011 69.128 36.682 Q 68.164 37.354 67.017 37.756 Q 65.869 38.159 64.502 38.159 Q 62.866 38.159 61.462 37.586 Q 60.059 37.012 59.18 35.693 Q 59.033 35.474 59.033 35.23 Q 59.033 34.863 59.314 34.583 Q 59.595 34.302 59.961 34.302 Q 60.352 34.302 60.62 34.57 Q 60.645 34.619 60.791 34.729 Q 60.938 34.839 61.145 34.973 Q 61.353 35.108 61.633 35.205 Q 61.914 35.303 62.207 35.303 Q 62.793 35.303 63.196 35.059 Q 63.599 34.815 63.843 34.461 Q 64.087 34.107 64.197 33.704 Q 64.307 33.301 64.307 33.008 Q 64.307 32.398 64.111 31.787 Q 63.916 31.177 63.611 30.567 Q 63.306 29.956 62.952 29.309 Q 62.598 28.662 62.305 27.954 Z M 114.526 26.953 Q 114.99 26.929 115.393 26.929 L 116.138 26.929 Q 116.846 26.929 117.053 27.161 Q 117.261 27.393 117.261 27.857 Q 117.261 28.955 117.017 30.164 Q 116.772 31.372 116.772 32.593 Q 116.772 33.74 117.114 34.656 Q 117.456 35.571 118.03 36.194 Q 118.604 36.817 119.385 37.146 Q 120.166 37.476 121.045 37.476 Q 122.461 37.476 123.645 36.719 Q 124.829 35.962 125.781 34.863 Q 126.733 33.765 127.478 32.507 Q 128.223 31.25 128.784 30.249 Q 128.882 30.054 128.882 29.81 Q 128.882 29.468 128.638 29.187 Q 128.394 28.906 127.954 28.906 Q 127.71 28.906 127.49 29.028 Q 127.271 29.151 127.148 29.37 Q 126.733 30.176 126.111 31.25 Q 125.488 32.324 124.707 33.289 Q 123.926 34.253 122.998 34.937 Q 122.07 35.62 121.021 35.62 Q 120.679 35.62 120.264 35.486 Q 119.849 35.352 119.482 35.01 Q 119.116 34.668 118.872 34.094 Q 118.628 33.521 118.628 32.642 Q 118.628 32.031 118.701 31.397 Q 118.774 30.762 118.872 30.115 Q 118.97 29.468 119.043 28.858 Q 119.116 28.247 119.116 27.686 Q 119.116 26.294 118.384 25.684 Q 117.651 25.073 116.26 25.073 Q 115.894 25.073 115.491 25.086 Q 115.088 25.098 114.673 25.098 Q 114.673 24.609 114.587 23.95 Q 114.502 23.291 114.307 22.693 Q 114.111 22.095 113.757 21.68 Q 113.403 21.265 112.842 21.265 Q 112.354 21.265 111.865 21.765 Q 111.377 22.266 110.986 22.949 Q 110.596 23.633 110.364 24.341 Q 110.132 25.049 110.132 25.464 Q 110.132 26.026 110.376 26.343 Q 110.62 26.66 110.999 26.807 Q 111.377 26.953 111.816 26.978 Q 112.256 27.002 112.671 27.002 Q 112.451 28.076 112.305 28.589 Q 112.158 29.102 112.061 29.321 Q 111.963 29.541 111.914 29.614 Q 111.865 29.688 111.865 29.834 Q 111.865 30.225 112.158 30.481 Q 112.451 30.737 112.793 30.737 Q 113.403 30.737 113.647 30.176 Q 113.672 30.151 113.77 29.883 Q 113.867 29.614 114.001 29.187 Q 114.136 28.76 114.282 28.186 Q 114.429 27.612 114.526 26.953 Z M 171.777 26.953 Q 172.241 26.929 172.644 26.929 L 173.389 26.929 Q 174.097 26.929 174.304 27.161 Q 174.512 27.393 174.512 27.857 Q 174.512 28.955 174.268 30.164 Q 174.023 31.372 174.023 32.593 Q 174.023 33.74 174.365 34.656 Q 174.707 35.571 175.281 36.194 Q 175.855 36.817 176.636 37.146 Q 177.417 37.476 178.296 37.476 Q 179.712 37.476 180.896 36.719 Q 182.08 35.962 183.032 34.863 Q 183.984 33.765 184.729 32.507 Q 185.474 31.25 186.035 30.249 Q 186.133 30.054 186.133 29.81 Q 186.133 29.468 185.889 29.187 Q 185.645 28.906 185.205 28.906 Q 184.961 28.906 184.741 29.028 Q 184.522 29.151 184.399 29.37 Q 183.984 30.176 183.362 31.25 Q 182.739 32.324 181.958 33.289 Q 181.177 34.253 180.249 34.937 Q 179.321 35.62 178.272 35.62 Q 177.93 35.62 177.515 35.486 Q 177.1 35.352 176.733 35.01 Q 176.367 34.668 176.123 34.094 Q 175.879 33.521 175.879 32.642 Q 175.879 32.031 175.952 31.397 Q 176.025 30.762 176.123 30.115 Q 176.221 29.468 176.294 28.858 Q 176.367 28.247 176.367 27.686 Q 176.367 26.294 175.635 25.684 Q 174.902 25.073 173.511 25.073 Q 173.145 25.073 172.742 25.086 Q 172.339 25.098 171.924 25.098 Q 171.924 24.609 171.838 23.95 Q 171.753 23.291 171.558 22.693 Q 171.362 22.095 171.008 21.68 Q 170.654 21.265 170.093 21.265 Q 169.605 21.265 169.116 21.765 Q 168.628 22.266 168.237 22.949 Q 167.847 23.633 167.615 24.341 Q 167.383 25.049 167.383 25.464 Q 167.383 26.026 167.627 26.343 Q 167.871 26.66 168.25 26.807 Q 168.628 26.953 169.067 26.978 Q 169.507 27.002 169.922 27.002 Q 169.702 28.076 169.556 28.589 Q 169.409 29.102 169.312 29.321 Q 169.214 29.541 169.165 29.614 Q 169.116 29.688 169.116 29.834 Q 169.116 30.225 169.409 30.481 Q 169.702 30.737 170.044 30.737 Q 170.654 30.737 170.898 30.176 Q 170.923 30.151 171.021 29.883 Q 171.118 29.614 171.252 29.187 Q 171.387 28.76 171.533 28.186 Q 171.68 27.612 171.777 26.953 Z M 149.78 29.297 Q 149.414 31.006 148.73 32.483 Q 148.047 33.96 147.278 35.059 Q 146.509 36.157 145.728 36.792 Q 144.946 37.427 144.385 37.476 Q 143.75 37.476 142.981 36.841 Q 142.212 36.206 141.516 35.071 Q 140.82 33.936 140.356 32.373 Q 139.893 30.811 139.893 28.98 Q 139.893 27.368 140.173 26.538 Q 140.454 25.708 140.527 25.586 Q 140.649 25.366 140.857 25.244 Q 141.064 25.122 141.333 25.122 Q 141.748 25.122 141.992 25.403 Q 142.236 25.684 142.236 26.026 Q 142.236 26.27 142.139 26.441 Q 142.114 26.489 141.919 27.1 Q 141.724 27.71 141.724 28.931 Q 141.724 30.371 142.017 31.592 Q 142.31 32.813 142.725 33.692 Q 143.14 34.57 143.591 35.071 Q 144.043 35.571 144.336 35.571 Q 144.531 35.571 144.91 35.205 Q 145.288 34.839 145.715 34.204 Q 146.143 33.569 146.594 32.691 Q 147.046 31.812 147.424 30.774 Q 147.803 29.736 148.035 28.577 Q 148.267 27.417 148.267 26.221 Q 148.267 25.977 148.254 25.745 Q 148.242 25.513 148.242 25.269 Q 148.242 24.854 148.499 24.573 Q 148.755 24.292 149.17 24.292 Q 149.487 24.292 149.744 24.487 Q 150 24.683 150.073 25.025 Q 150.073 25 150.171 25.415 Q 150.269 25.83 150.501 26.477 Q 150.732 27.124 151.086 27.881 Q 151.44 28.638 151.941 29.285 Q 152.441 29.932 153.101 30.371 Q 153.76 30.811 154.614 30.811 Q 155.078 30.811 155.42 30.615 Q 155.762 30.42 155.981 30.176 Q 156.201 29.932 156.311 29.712 Q 156.42 29.494 156.421 29.468 Q 156.519 29.199 156.751 29.041 Q 156.982 28.882 157.275 28.882 Q 157.666 28.882 157.935 29.163 Q 158.203 29.443 158.203 29.81 Q 158.203 29.981 158.13 30.151 Q 157.983 30.493 157.703 30.933 Q 157.422 31.372 156.982 31.763 Q 156.543 32.153 155.945 32.41 Q 155.347 32.666 154.614 32.666 Q 153.76 32.666 153.027 32.361 Q 152.295 32.056 151.697 31.58 Q 151.099 31.104 150.61 30.505 Q 150.122 29.907 149.78 29.297 Z M 75.22 34.302 Q 75.732 35.01 76.538 35.437 Q 77.344 35.864 78.516 35.864 Q 79.712 35.864 80.689 35.291 Q 81.665 34.717 82.471 33.789 Q 83.276 32.861 83.911 31.714 Q 84.546 30.567 85.059 29.419 Q 85.181 29.151 85.4 29.016 Q 85.62 28.882 85.889 28.882 Q 86.304 28.882 86.56 29.175 Q 86.816 29.468 86.816 29.81 Q 86.816 29.932 86.792 30.017 Q 86.768 30.102 86.719 30.2 Q 85.034 33.911 83.044 35.791 Q 81.055 37.671 78.54 37.72 Q 76.929 37.72 75.757 37.097 Q 74.585 36.475 73.828 35.486 Q 73.071 34.497 72.705 33.252 Q 72.339 32.007 72.339 30.762 Q 72.339 29.517 72.644 28.467 Q 72.949 27.417 73.523 26.636 Q 74.097 25.855 74.89 25.415 Q 75.684 24.976 76.636 24.976 Q 77.197 24.976 77.747 25.208 Q 78.296 25.44 78.735 25.867 Q 79.175 26.294 79.443 26.904 Q 79.712 27.515 79.712 28.296 Q 79.712 29.297 79.37 30.176 Q 79.028 31.055 78.43 31.812 Q 77.832 32.568 77.002 33.203 Q 76.172 33.838 75.22 34.302 Z M 130.054 34.302 Q 130.566 35.01 131.372 35.437 Q 132.178 35.864 133.35 35.864 Q 134.546 35.864 135.522 35.291 Q 136.499 34.717 137.305 33.789 Q 138.11 32.861 138.745 31.714 Q 139.38 30.567 139.893 29.419 Q 140.015 29.151 140.234 29.016 Q 140.454 28.882 140.723 28.882 Q 141.138 28.882 141.394 29.175 Q 141.65 29.468 141.65 29.81 Q 141.65 29.932 141.626 30.017 Q 141.602 30.102 141.553 30.2 Q 139.868 33.911 137.878 35.791 Q 135.889 37.671 133.374 37.72 Q 131.763 37.72 130.591 37.097 Q 129.419 36.475 128.662 35.486 Q 127.905 34.497 127.539 33.252 Q 127.173 32.007 127.173 30.762 Q 127.173 29.517 127.478 28.467 Q 127.783 27.417 128.357 26.636 Q 128.931 25.855 129.724 25.415 Q 130.518 24.976 131.47 24.976 Q 132.031 24.976 132.581 25.208 Q 133.13 25.44 133.569 25.867 Q 134.009 26.294 134.277 26.904 Q 134.546 27.515 134.546 28.296 Q 134.546 29.297 134.204 30.176 Q 133.862 31.055 133.264 31.812 Q 132.666 32.568 131.836 33.203 Q 131.006 33.838 130.054 34.302 Z M 159.375 34.302 Q 159.888 35.01 160.693 35.437 Q 161.499 35.864 162.671 35.864 Q 163.867 35.864 164.844 35.291 Q 165.82 34.717 166.626 33.789 Q 167.432 32.861 168.066 31.714 Q 168.701 30.567 169.214 29.419 Q 169.336 29.151 169.556 29.016 Q 169.775 28.882 170.044 28.882 Q 170.459 28.882 170.715 29.175 Q 170.972 29.468 170.972 29.81 Q 170.972 29.932 170.947 30.017 Q 170.923 30.102 170.874 30.2 Q 169.189 33.911 167.2 35.791 Q 165.21 37.671 162.695 37.72 Q 161.084 37.72 159.912 37.097 Q 158.74 36.475 157.983 35.486 Q 157.227 34.497 156.86 33.252 Q 156.494 32.007 156.494 30.762 Q 156.494 29.517 156.799 28.467 Q 157.105 27.417 157.678 26.636 Q 158.252 25.855 159.045 25.415 Q 159.839 24.976 160.791 24.976 Q 161.353 24.976 161.902 25.208 Q 162.451 25.44 162.891 25.867 Q 163.33 26.294 163.599 26.904 Q 163.867 27.515 163.867 28.296 Q 163.867 29.297 163.525 30.176 Q 163.184 31.055 162.585 31.812 Q 161.987 32.568 161.157 33.203 Q 160.327 33.838 159.375 34.302 Z M 49.121 32.129 Q 49.121 28.613 49.561 25.122 Q 49.609 24.78 49.866 24.524 Q 50.122 24.268 50.537 24.268 Q 50.903 24.268 51.147 24.548 Q 51.392 24.829 51.392 25.195 Q 51.392 25.342 51.331 26.074 Q 51.27 26.807 51.184 27.82 Q 51.099 28.833 51.038 29.968 Q 50.977 31.104 50.977 32.056 Q 50.977 33.35 51.233 34.143 Q 51.489 34.937 51.892 35.376 Q 52.295 35.816 52.747 35.962 Q 53.198 36.109 53.613 36.109 Q 54.297 36.109 55.029 35.62 Q 55.762 35.132 56.531 34.253 Q 57.3 33.374 58.081 32.141 Q 58.862 30.908 59.619 29.395 Q 59.741 29.151 59.961 29.016 Q 60.181 28.882 60.449 28.882 Q 60.84 28.882 61.096 29.175 Q 61.353 29.468 61.353 29.81 Q 61.353 30.054 61.255 30.225 Q 60.962 30.786 60.522 31.592 Q 60.083 32.398 59.522 33.252 Q 58.96 34.107 58.289 34.949 Q 57.617 35.791 56.86 36.463 Q 56.104 37.134 55.273 37.549 Q 54.443 37.964 53.589 37.964 Q 52.49 37.964 51.66 37.5 Q 50.83 37.036 50.256 36.255 Q 49.683 35.474 49.402 34.412 Q 49.121 33.35 49.121 32.129 Z M 87.036 25.879 Q 87.036 24.756 87.048 23.926 Q 87.061 23.096 87.085 22.363 Q 87.109 21.631 87.122 20.874 Q 87.134 20.117 87.158 19.141 Q 87.158 18.677 87.17 17.749 Q 87.183 16.821 87.219 15.613 Q 87.256 14.404 87.329 13.025 Q 87.402 11.646 87.524 10.266 Q 87.647 8.887 87.83 7.617 Q 88.013 6.348 88.281 5.371 Q 88.55 4.395 88.916 3.809 Q 89.282 3.223 89.771 3.223 Q 90.234 3.223 90.588 3.601 Q 90.942 3.98 91.174 4.651 Q 91.406 5.322 91.516 6.275 Q 91.626 7.227 91.626 8.399 Q 91.626 10.742 91.284 13.062 Q 90.942 15.381 90.332 17.603 Q 89.722 19.824 88.879 21.912 Q 88.037 23.999 87.036 25.879 Z M 86.963 41.187 Q 88.062 42.383 88.892 43.872 Q 89.722 45.361 90.295 46.961 Q 90.869 48.56 91.15 50.195 Q 91.431 51.831 91.431 53.32 Q 91.431 53.906 91.333 54.846 Q 91.235 55.786 90.979 56.69 Q 90.723 57.593 90.259 58.252 Q 89.795 58.911 89.063 58.911 Q 88.257 58.911 87.83 57.825 Q 87.402 56.738 87.195 54.968 Q 86.987 53.198 86.963 50.977 Q 86.939 48.755 86.939 46.484 Q 86.939 45.386 86.951 44.055 Q 86.963 42.725 86.963 41.187 Z M 74.487 32.715 Q 74.365 32.276 74.28 31.787 Q 74.194 31.299 74.194 30.859 Q 74.194 30.151 74.329 29.431 Q 74.463 28.711 74.756 28.125 Q 75.049 27.539 75.513 27.173 Q 75.977 26.807 76.636 26.807 Q 77.124 26.807 77.49 27.185 Q 77.856 27.564 77.856 28.296 Q 77.856 28.955 77.612 29.602 Q 77.368 30.249 76.929 30.835 Q 76.489 31.421 75.867 31.909 Q 75.244 32.398 74.487 32.715 Z M 129.321 32.715 Q 129.199 32.276 129.114 31.787 Q 129.028 31.299 129.028 30.859 Q 129.028 30.151 129.163 29.431 Q 129.297 28.711 129.59 28.125 Q 129.883 27.539 130.347 27.173 Q 130.811 26.807 131.47 26.807 Q 131.958 26.807 132.324 27.185 Q 132.69 27.564 132.69 28.296 Q 132.69 28.955 132.446 29.602 Q 132.202 30.249 131.763 30.835 Q 131.323 31.421 130.701 31.909 Q 130.078 32.398 129.321 32.715 Z M 158.643 32.715 Q 158.521 32.276 158.435 31.787 Q 158.35 31.299 158.35 30.859 Q 158.35 30.151 158.484 29.431 Q 158.618 28.711 158.911 28.125 Q 159.204 27.539 159.668 27.173 Q 160.132 26.807 160.791 26.807 Q 161.279 26.807 161.646 27.185 Q 162.012 27.564 162.012 28.296 Q 162.012 28.955 161.768 29.602 Q 161.523 30.249 161.084 30.835 Q 160.645 31.421 160.022 31.909 Q 159.399 32.398 158.643 32.715 Z M 53.076 17.822 Q 53.076 18.75 52.429 19.397 Q 51.782 20.044 50.855 20.044 Q 49.927 20.044 49.28 19.397 Q 48.633 18.75 48.633 17.822 Q 48.633 17.359 48.804 16.956 Q 48.975 16.553 49.28 16.248 Q 49.585 15.942 49.988 15.772 Q 50.391 15.601 50.855 15.601 Q 51.318 15.601 51.721 15.772 Q 52.124 15.942 52.429 16.248 Q 52.734 16.553 52.905 16.956 Q 53.076 17.359 53.076 17.822 Z M 25.342 20.191 Q 26.147 20.044 27.417 20.044 Q 28.125 20.044 28.674 20.105 Q 29.224 20.166 29.675 20.252 Q 30.127 20.337 30.518 20.459 Q 30.908 20.581 31.323 20.703 Q 29.98 21.045 28.406 21.216 Q 26.831 21.387 25.342 21.387 L 25.342 20.215 L 25.342 20.191 Z M 103.247 28.15 Q 103.247 27.417 103.491 27.197 Q 103.735 26.978 103.882 26.978 Q 104.248 26.978 104.517 27.332 Q 104.785 27.686 104.968 28.259 Q 105.151 28.833 105.249 29.517 Q 105.347 30.2 105.347 30.859 Q 105.347 31.348 105.273 31.86 Q 104.761 31.543 104.382 31.091 Q 104.004 30.64 103.748 30.139 Q 103.491 29.639 103.369 29.126 Q 103.247 28.613 103.247 28.15 Z M 51.709 17.822 Q 51.709 18.164 51.453 18.408 Q 51.196 18.652 50.855 18.652 Q 50.513 18.652 50.269 18.408 Q 50.024 18.164 50.024 17.822 Q 50.024 17.481 50.269 17.224 Q 50.513 16.968 50.855 16.968 Q 51.196 16.968 51.453 17.224 Q 51.709 17.481 51.709 17.822 Z M 111.816 25.147 Q 111.865 24.951 111.963 24.658 Q 112.061 24.365 112.183 24.109 Q 112.305 23.853 112.415 23.67 Q 112.524 23.486 112.598 23.486 Q 112.671 23.486 112.732 23.682 Q 112.793 23.877 112.83 24.146 Q 112.866 24.414 112.878 24.695 Q 112.891 24.976 112.891 25.147 L 111.816 25.147 Z M 169.067 25.147 Q 169.116 24.951 169.214 24.658 Q 169.312 24.365 169.434 24.109 Q 169.556 23.853 169.666 23.67 Q 169.775 23.486 169.849 23.486 Q 169.922 23.486 169.983 23.682 Q 170.044 23.877 170.081 24.146 Q 170.117 24.414 170.129 24.695 Q 170.142 24.976 170.142 25.147 L 169.067 25.147 Z" vector-effect="non-scaling-stroke"/></g></svg>